<svg width="84" height="84" viewBox="0 0 84 84" fill="none" xmlns="http://www.w3.org/2000/svg">
<path d="M42 77.238C61.9485 77.238 78.12 61.0666 78.12 41.118C78.12 21.1695 61.9485 4.99805 42 4.99805C22.0515 4.99805 5.88 21.1695 5.88 41.118C5.88 61.0666 22.0515 77.238 42 77.238Z" fill="black"/>
<path d="M42 12.5581C55.776 12.5581 67.032 22.2181 67.032 34.1461C67.032 40.1101 64.26 45.4861 59.724 49.4341C61.656 51.7021 62.412 54.1381 61.488 56.1541C60.144 58.9261 55.776 59.6821 51.324 57.9181V66.7381C51.324 68.3341 49.896 69.6781 48.216 69.6781H48.132C46.704 69.6781 45.444 68.7541 45.108 67.4941C44.688 68.7541 43.512 69.6781 42.084 69.6781H42C40.572 69.6781 39.312 68.7541 38.976 67.4941C38.556 68.7541 37.38 69.6781 35.952 69.6781H35.868C34.104 69.6781 32.76 68.3341 32.76 66.7381V57.9181C28.308 59.6821 23.94 59.0101 22.596 56.1541C21.672 54.1381 22.428 51.6181 24.36 49.4341C19.824 45.4861 17.052 40.1101 17.052 34.1461C16.968 22.2181 28.224 12.5581 42 12.5581Z" fill="white"/>
<path d="M31.5 49.1821C32.34 49.1821 33.096 49.0981 33.852 48.8461C34.44 48.6781 35.028 48.4261 35.532 48.1741C38.22 46.7461 40.152 43.8061 40.152 40.5301C40.152 35.8261 36.204 31.8781 31.416 31.8781C26.628 31.8781 22.764 35.7421 22.764 40.4461C22.764 45.3181 26.628 49.1821 31.5 49.1821Z" fill="black"/>
<path d="M48.468 48.0901C49.056 48.4261 49.56 48.5941 50.148 48.7621C50.904 49.0141 51.66 49.0981 52.5 49.0981C57.288 49.0981 61.236 45.2341 61.236 40.4461C61.236 35.6581 57.288 31.7941 52.5 31.7941C47.712 31.7941 43.764 35.6581 43.764 40.4461C43.848 43.8061 45.696 46.6621 48.468 48.0901Z" fill="black"/>
<path d="M39.06 47.8381C39.06 49.4341 40.404 50.7781 42 50.7781C43.596 50.7781 44.94 49.4341 44.94 47.8381C44.94 46.2421 43.596 44.8981 42 44.8981C40.404 44.8981 39.06 46.2421 39.06 47.8381Z" fill="black"/>
</svg>
