<svg width="74" height="73" viewBox="0 0 74 73" fill="none" xmlns="http://www.w3.org/2000/svg">
<path d="M37 72.238C56.9485 72.238 73.12 56.0666 73.12 36.118C73.12 16.1695 56.9485 -0.00195312 37 -0.00195312C17.0515 -0.00195312 0.880005 16.1695 0.880005 36.118C0.880005 56.0666 17.0515 72.238 37 72.238Z" fill="black"/>
<path d="M37 7.55811C50.776 7.55811 62.032 17.2181 62.032 29.1461C62.032 35.1101 59.26 40.4861 54.724 44.4341C56.656 46.7021 57.412 49.1381 56.488 51.1541C55.144 53.9261 50.776 54.6821 46.324 52.9181V61.7381C46.324 63.3341 44.896 64.6781 43.216 64.6781H43.132C41.704 64.6781 40.444 63.7541 40.108 62.4941C39.688 63.7541 38.512 64.6781 37.084 64.6781H37C35.572 64.6781 34.312 63.7541 33.976 62.4941C33.556 63.7541 32.38 64.6781 30.952 64.6781H30.868C29.104 64.6781 27.76 63.3341 27.76 61.7381V52.9181C23.308 54.6821 18.94 54.0101 17.596 51.1541C16.672 49.1381 17.428 46.6181 19.36 44.4341C14.824 40.4861 12.052 35.1101 12.052 29.1461C11.968 17.2181 23.224 7.55811 37 7.55811Z" fill="white"/>
<path d="M25.5459 44C26.4638 44 27.2899 43.9078 28.1159 43.6311C28.7585 43.4466 29.401 43.1699 29.9517 42.8932C32.8889 41.3252 35 38.0971 35 34.5C35 29.335 30.686 25 25.4541 25C20.2222 25 16 29.2427 16 34.4078C16 39.7573 20.2222 44 25.5459 44Z" fill="black"/>
<path d="M44.1154 42.8932C44.7548 43.2621 45.3029 43.4466 45.9423 43.6311C46.7644 43.9078 47.5865 44 48.5 44C53.7067 44 58 39.7573 58 34.5C58 29.2427 53.7067 25 48.5 25C43.2933 25 39 29.2427 39 34.5C39.0913 38.1893 41.101 41.3252 44.1154 42.8932Z" fill="black"/>
<path d="M31.5048 47.1512C29.4907 54.3025 33.9602 49.2966 36.876 49.2966C39.7918 49.2966 44.9328 54.3025 42.2472 47.1512C40.6358 42.8605 39.7918 40 36.876 40C33.9602 40 33.519 42.8605 31.5048 47.1512Z" fill="black"/>
</svg>
