<?xml version="1.0" encoding="UTF-8"?>
<svg width="512" height="512" viewBox="0 0 512 512" fill="none" xmlns="http://www.w3.org/2000/svg">
  <rect width="512" height="512" rx="50" fill="#f3f4f6"/>
  <path d="M363.5 136c0-5.5-4.5-10-10-10h-25c-5.5 0-10 4.5-10 10v171.5c-8.5-5.5-20-9.5-32.5-9.5-30.5 0-55 21.5-55 48s24.5 48 55 48 55-21.5 55-48V184h12.5c5.5 0 10-4.5 10-10v-38z" fill="#6366f1"/>
  <path d="M266 297c-19.5 0-35.5 11-40 26 7-9 20.5-15.5 36-15.5 22.5 0 41 14.5 41 32.5 0 1.5 0 2.5-.5 4 3-6.5 4.5-13.5 4.5-21 0-26.5-24.5-48-55-48-12.5 0-24 4-32.5 9.5v-47c0-5.5-4.5-10-10-10h-25c-5.5 0-10 4.5-10 10v171.5c-8.5-5.5-20-9.5-32.5-9.5-30.5 0-55 21.5-55 48s24.5 48 55 48 55-21.5 55-48V256h12.5c5.5 0 10-4.5 10-10v-38c0-5.5-4.5-10-10-10h-25V136c0-5.5 4.5-10 10-10h25c5.5 0 10 4.5 10 10v161z" fill="#4f46e5"/>
  <path d="M169 297c-19.5 0-35.5 11-40 26 7-9 20.5-15.5 36-15.5 22.5 0 41 14.5 41 32.5 0 1.5 0 2.5-.5 4 3-6.5 4.5-13.5 4.5-21 0-26.5-18.5-48-49-48z" fill="#4338ca"/>
</svg>